REM MD5 f1fd948db766647126ed1f111ec73bf0
FILE "Dengeki PlayStation D39 (Japan).bin" BINARY
  TRACK 01 MODE2/2352
    INDEX 01 00:00:00
  TRACK 02 AUDIO
    INDEX 00 60:46:57
    INDEX 01 60:48:57
  TRACK 03 AUDIO
    INDEX 00 62:20:44
    INDEX 01 62:22:44
  TRACK 04 AUDIO
    INDEX 00 65:25:08
    INDEX 01 65:27:08
REM LEADOUT 68:57:08
